<svg version="1.1" id="Layer_1" xmlns="http://www.w3.org/2000/svg" xmlns:xlink="http://www.w3.org/1999/xlink" x="0px" y="0px"
	 width="100%" viewBox="0 0 1024 1024" enable-background="new 0 0 1024 1024" xml:space="preserve">
<path fill="#000000" opacity="1.000000" stroke="none"
	d="
M342.582977,757.183350
	C339.890808,748.954651 340.181702,740.680603 338.755341,732.686218
	C337.800476,727.334595 332.754425,724.542664 329.217377,720.989746
	C327.604889,719.369995 325.626221,721.663879 324.580170,723.449219
	C322.713959,726.634460 322.381256,730.289185 323.116180,733.655457
	C324.693237,740.878784 323.159027,747.754211 321.788300,754.707581
	C296.752960,751.215576 230.236679,630.680847 239.205170,605.016663
	C240.990784,605.160034 241.215637,606.693970 241.411560,607.888855
	C242.387299,613.838684 246.592865,617.841797 250.055389,622.230713
	C252.060425,624.772217 254.797516,625.985474 258.429321,625.517822
	C267.288757,624.376953 269.982147,626.615540 270.937378,635.432617
	C271.234650,638.176392 272.000275,640.662537 273.636780,642.834351
	C274.724670,644.278137 275.925842,646.060242 278.114441,644.993591
	C280.364929,643.896912 281.060333,641.905396 280.245880,639.514709
	C279.386688,636.992798 278.263306,634.547974 277.572388,631.984009
	C275.250061,623.365845 281.948944,614.183105 289.927277,614.926025
	C292.332062,615.149963 294.564362,615.703247 295.270264,618.369568
	C295.141418,619.716553 294.118683,620.012878 293.286316,620.547791
	C288.378082,623.701721 287.979462,627.412659 292.675079,630.712891
	C295.466553,632.674683 296.624084,634.287537 294.959625,637.585083
	C293.700012,640.080688 295.427460,642.007385 297.150391,643.697449
	C299.598022,646.098328 301.244659,648.545898 300.751190,652.452271
	C300.308533,655.956360 302.852966,657.863647 306.427368,657.882812
	C309.592529,657.899780 312.758972,657.726807 315.923737,657.756409
	C323.615662,657.828308 324.847473,659.194702 323.496582,666.662964
	C322.990845,669.458923 323.170166,671.961731 324.732208,674.306274
	C325.665741,675.707458 326.778015,677.169617 328.658997,676.939026
	C330.353455,676.731262 330.845825,675.063049 331.471344,673.707581
	C335.368774,665.262024 334.191376,656.426697 333.122101,647.712158
	C332.477356,642.457947 331.133331,637.248535 328.438995,632.538757
	C327.701538,631.249634 327.113556,629.175842 325.499237,629.528931
	C320.087128,630.712341 320.225891,626.450806 318.977905,623.431274
	C317.516449,619.895142 318.996826,617.003479 321.531250,614.980164
	C329.893646,608.304138 330.392822,599.184753 329.887085,589.695557
	C329.541565,583.211914 329.412262,576.683228 328.492737,570.274231
	C327.752411,565.114380 327.186371,560.193176 327.294037,554.842957
	C327.499359,544.643799 326.215942,534.283508 325.735413,524.025940
	C325.138062,511.275177 322.889893,498.649139 323.398376,485.802917
	C323.739746,477.179047 323.093475,468.494873 322.499939,459.864441
	C322.220093,455.795288 318.799805,453.684875 315.259155,453.520813
	C302.051758,452.908691 289.092560,451.268799 276.547272,446.853180
	C273.411011,445.749329 268.034119,450.478851 267.198334,454.661804
	C265.718475,462.068298 270.348694,468.283173 278.029633,468.948334
	C280.839966,469.191742 283.691284,468.951508 286.523895,468.952576
	C288.783844,468.953430 291.573639,469.437897 292.113159,471.416626
	C292.734955,473.697144 293.470612,476.605896 291.149445,478.920776
	C287.108887,482.950256 285.549957,487.657959 286.750427,493.486237
	C287.706818,498.129608 284.773712,500.549622 280.237091,499.163422
	C277.228271,498.244080 274.210052,497.056366 271.528107,495.438324
	C267.731995,493.148102 264.832214,494.043427 262.372772,497.205994
	C258.148010,502.638489 252.918167,506.417694 246.106674,507.882874
	C244.346863,508.261414 242.527206,509.468506 240.867645,508.141571
	C239.178101,506.790741 239.831665,504.848206 240.225098,503.036774
	C243.949234,485.890137 249.762115,469.491180 257.810730,453.896606
	C258.952759,451.683929 260.248749,449.599701 262.365356,448.051636
	C265.740173,445.583191 265.444458,441.447601 261.736237,439.382019
	C220.130356,416.206848 199.758728,379.187988 192.613007,333.520691
	C192.048248,329.911438 191.460876,326.304962 190.822174,322.708191
	C190.270935,319.603821 191.053329,317.698883 194.567047,317.113953
	C211.359451,314.318604 228.183441,312.500671 245.228256,314.369751
	C250.310837,314.927063 255.418427,315.256500 261.222473,315.750610
	C259.873749,308.488586 258.372437,301.762878 257.411316,294.960785
	C255.073669,278.416931 255.289948,261.826599 256.436462,245.169983
	C257.963257,222.988312 263.072815,201.545624 268.705994,180.172958
	C269.171753,178.405853 269.802582,176.680527 270.228058,174.904953
	C270.955200,171.870377 272.602356,171.442917 275.398987,172.486923
	C301.293671,182.153503 325.794159,194.352600 347.329590,211.939377
	C372.625824,232.597458 391.746277,257.707245 402.493713,288.820801
	C402.751526,289.567169 403.346161,290.197205 404.016052,291.244934
	C419.152832,283.716705 434.922729,278.248199 451.928131,273.683716
	C454.122040,282.219208 456.587952,290.260834 458.189789,298.471100
	C459.872620,307.096436 461.195831,315.814392 461.556366,324.649689
	C462.434906,346.180084 458.677063,366.772400 448.791443,385.986267
	C443.349213,396.563934 443.773224,397.679565 455.575989,397.679565
	C481.908813,397.679626 508.242584,397.565521 534.573669,397.781403
	C539.871521,397.824860 542.264526,396.177765 543.316040,390.803711
	C550.278076,355.221039 557.505615,319.690033 564.740234,284.161255
	C565.636414,279.760101 566.504211,275.548553 565.263794,270.992340
	C564.462097,268.047455 565.566101,264.744476 567.585938,262.593201
	C570.403503,259.592255 570.959473,256.316376 570.692932,252.558456
	C570.635010,251.742554 570.549500,250.667130 570.987122,250.117706
	C575.827209,244.040497 578.720581,236.594299 584.211975,231.035629
	C585.718933,229.510147 587.049561,227.743011 588.679138,226.432693
	C594.216919,221.980057 599.406372,216.478531 605.749146,213.743835
	C643.657959,197.399231 682.888000,184.421570 721.271606,169.259369
	C733.648315,164.370346 746.087708,159.635056 758.559204,154.992538
	C768.132080,151.429062 775.198730,154.577286 778.986572,164.061234
	C782.992920,174.092270 787.553650,183.927887 790.506409,194.346680
	C792.445190,201.187790 789.476013,206.983597 782.804321,209.469299
	C750.379639,221.549850 717.914307,233.521240 685.475464,245.563705
	C675.025757,249.442993 664.623413,253.449890 654.176697,257.337463
	C650.958984,258.534912 648.134277,260.081818 646.664490,263.419861
	C646.116333,264.664825 645.221863,265.838318 643.853333,266.090637
	C639.979980,266.804779 639.095276,270.398804 636.835693,272.584351
	C632.728271,276.557312 631.775696,280.880310 631.387756,285.920776
	C631.315918,286.854218 630.910339,288.082245 630.224976,288.598877
	C623.117004,293.956848 624.681274,302.205933 623.119568,309.411285
	C622.000610,314.573547 620.716125,319.701508 619.677856,324.879333
	C618.437500,331.064514 617.324280,337.277100 616.288391,343.499878
	C616.054871,344.902588 615.793335,346.692413 617.540833,347.462097
	C619.277283,348.226837 620.057739,346.412415 621.304138,345.805847
	C628.688843,342.212158 631.570923,334.251404 637.648254,329.276306
	C641.634827,326.012726 643.685974,327.063171 646.143066,330.055176
	C647.615784,331.848419 648.772705,333.878845 650.678589,335.319489
	C652.372375,336.599823 653.824219,338.680847 656.314209,337.433746
	C658.858826,336.159271 656.927368,333.850037 657.266235,331.742004
	C660.117554,330.217438 662.611572,331.557404 664.958069,333.075775
	C677.308350,341.067139 688.360352,350.697418 699.076782,360.690979
	C723.240417,383.224762 741.835327,409.935089 755.707458,439.729492
	C766.734985,463.414185 774.759888,488.214661 778.439880,514.272278
	C779.741394,523.488098 781.018677,532.676086 781.219299,541.991577
	C781.309998,546.202209 780.379700,550.147949 779.192566,554.197205
	C777.967285,558.376343 775.134644,559.134583 771.714600,559.356689
	C768.127258,559.589661 766.283508,557.217468 765.214172,554.203491
	C764.663879,552.652100 764.122498,550.940063 764.226440,549.342834
	C764.577087,543.956238 762.632507,539.357239 760.434143,534.577393
	C757.181763,527.505493 754.864563,519.897278 745.105164,520.639038
	C744.580261,517.830688 746.572205,517.209778 747.466797,515.941956
	C750.024719,512.316345 748.616882,506.834808 744.310974,506.492767
	C734.814941,505.738434 726.950012,500.118591 717.803101,498.525452
	C715.705750,498.160156 713.627563,497.156586 713.631348,494.300323
	C715.677124,492.130829 718.300781,493.096985 720.694336,492.946808
	C727.396301,492.526337 734.013550,492.004303 739.019958,486.564087
	C741.599121,483.761414 742.629517,480.919739 740.128296,477.663300
	C738.171631,475.116028 738.346558,472.591370 739.237061,469.671448
	C741.198059,463.241577 739.127197,459.634094 732.467896,458.518646
	C726.247192,457.476715 720.697876,454.966919 715.249146,452.065979
	C713.467285,451.117279 711.801819,450.364563 709.643616,450.382599
	C706.301208,450.410553 703.355530,448.553741 703.617065,445.160309
	C703.896362,441.536346 707.383057,440.631622 710.542847,441.190796
	C714.964294,441.973297 719.046143,441.992889 723.044128,439.523041
	C728.276123,436.290863 729.241028,431.894196 725.426697,426.984650
	C724.613403,425.937775 723.626282,425.020294 722.678772,424.084167
	C714.717224,416.218628 714.714355,416.221527 714.600952,404.104004
	C720.860474,404.425476 720.533386,399.304413 721.627930,395.312103
	C722.707397,391.374451 720.475342,389.047516 717.533081,387.051819
	C713.082458,384.032928 709.327026,380.265289 705.989563,376.072632
	C705.061890,374.907288 704.353455,373.494080 702.485229,373.603607
	C700.464905,374.762268 701.638123,376.488647 701.732117,378.036652
	C702.369324,388.527771 703.258301,398.932190 695.700806,407.945312
	C692.249451,412.061493 687.588501,412.892303 684.271301,408.550629
	C683.032288,406.928955 681.570984,405.679718 680.149475,404.302490
	C679.248962,403.430084 678.686035,402.385620 677.348083,403.332520
	C675.702637,404.497070 676.854065,405.582764 677.495483,406.734131
	C680.654663,412.404541 683.096558,418.295166 684.423462,424.738647
	C686.320435,433.950867 684.266296,442.999817 683.801819,452.080170
	C683.020508,467.354919 681.443054,482.589172 680.187378,497.839386
	C678.685486,516.079712 677.132751,534.315857 675.671814,552.559448
	C674.517273,566.977600 673.479736,581.405151 672.369446,595.826843
	C670.900024,614.913513 669.418579,633.999268 667.913635,653.083069
	C667.796814,654.564453 667.073669,656.102051 667.829651,657.495789
	C668.636963,658.984070 667.058472,661.481079 669.738281,662.105896
	C671.909302,662.612061 672.415527,660.642639 673.528748,659.494873
	C675.609375,657.349731 687.647766,657.111633 689.787415,659.094360
	C690.140747,659.421814 690.488159,659.849548 690.630737,660.297119
	C694.875732,673.623352 698.692017,687.015259 695.618774,701.224365
	C693.895508,709.192200 688.698181,714.426147 681.641113,717.793152
	C676.905762,720.052429 671.012146,716.934753 668.788391,711.385742
	C667.606445,708.436523 667.006348,705.332703 666.956970,702.116882
	C666.927673,700.214355 667.213623,698.135010 665.394287,696.619080
	C663.742004,697.985535 664.602905,699.750549 664.436707,701.301758
	C662.403137,720.288086 662.565979,739.512085 658.262390,758.253113
	C656.761353,764.789795 654.235352,770.928650 651.170471,776.871338
	C649.956665,779.224915 648.871948,781.414673 650.189087,784.380554
	C651.494507,787.320007 648.990479,788.997803 646.641724,790.017578
	C642.105286,791.987305 638.392700,794.900208 635.266907,798.852234
	C637.177063,800.269348 639.233398,799.656494 641.130371,799.658691
	C678.296204,799.701721 715.462097,799.691772 752.627991,799.691040
	C757.940063,799.690918 762.606384,800.943542 764.906799,806.383301
	C768.022949,813.751892 763.142212,821.232056 755.023499,821.327393
	C742.026123,821.480103 729.026367,821.441711 716.027649,821.478149
	C645.735596,821.675232 575.443665,821.922485 505.151428,822.047363
	C462.486816,822.123230 419.820007,822.228333 377.158020,821.868347
	C360.889069,821.731140 344.595734,822.689697 328.377045,821.800537
	C311.554016,820.878296 294.772614,822.814392 277.977905,821.533752
	C272.041138,821.081055 266.070862,822.898865 260.084442,821.451050
	C254.669724,820.141479 251.165894,816.015564 251.056381,810.469360
	C250.960861,805.632751 254.816071,801.074768 260.119476,800.051575
	C262.059357,799.677246 264.096954,799.725708 266.090149,799.723877
	C298.089508,799.694153 330.088928,799.699341 362.088196,799.646362
	C364.010956,799.643188 366.064545,800.203735 368.745575,798.408813
	C355.940216,787.272339 347.029297,773.812744 342.582977,757.183350
M430.634918,790.845886
	C437.902252,798.362854 447.325378,798.941162 456.895966,798.943970
	C476.889679,798.949951 496.886475,798.695618 516.875549,798.986877
	C524.409729,799.096558 530.811707,796.302856 537.291992,793.287048
	C538.955261,792.512939 540.586670,791.457397 540.717590,789.330322
	C540.864380,786.945068 538.691895,786.723694 537.302246,785.629272
	C534.581970,783.486877 531.619446,783.322449 528.395874,783.326904
	C493.238007,783.375977 458.079956,783.384583 422.922058,783.337219
	C400.440399,783.306885 382.581818,769.468689 376.788940,747.722900
	C374.017365,737.318604 374.317963,726.602905 373.703735,715.993469
	C372.837860,701.036987 372.422699,686.053772 371.506409,671.100952
	C369.684143,641.363953 367.602264,611.642883 365.725403,581.909119
	C364.718597,565.958496 363.873444,549.997253 363.031036,534.036804
	C362.223694,518.741760 361.524109,503.441132 360.752686,488.144165
	C360.612823,485.371033 360.827698,483.233551 364.579865,483.341888
	C378.233124,483.735931 391.903839,483.171814 405.541260,483.369171
	C443.362244,483.916595 481.180267,483.387024 518.996826,483.757446
	C522.245789,483.789246 523.894287,482.763062 524.525757,479.542419
	C525.805725,473.013580 527.405090,466.547546 528.692627,460.020050
	C529.994385,453.420166 529.899048,453.332581 523.258972,453.329254
	C481.269562,453.308105 439.280121,453.324280 397.290710,453.317627
	C387.293335,453.316040 377.294556,453.367676 367.299103,453.217194
	C361.021454,453.122681 357.319275,449.202606 357.766968,443.546722
	C358.181183,438.313629 361.887207,435.727234 369.081482,435.726501
	C432.399231,435.720123 495.716980,435.734650 559.034729,435.694946
	C563.014282,435.692444 567.022583,434.868469 570.968018,435.141724
	C588.116821,436.329559 605.277710,435.316345 622.425049,435.731232
	C626.204956,435.822662 627.998474,434.329254 628.099915,430.561218
	C628.144470,428.908386 628.502625,427.263489 628.725891,425.616028
	C629.352295,420.994781 627.685059,419.095886 622.694702,419.154144
	C603.390503,419.379517 584.081848,419.214508 564.774902,419.223114
	C495.792328,419.253967 426.809753,419.286865 357.827179,419.343933
	C346.479248,419.353333 342.091217,424.487305 342.862183,435.955872
	C344.112244,454.551117 345.110077,473.163422 346.191620,491.769867
	C347.620758,516.355530 348.934814,540.948303 350.466858,565.527466
	C352.640869,600.406494 355.002625,635.273682 357.217987,670.150208
	C358.610229,692.068542 359.607300,714.015625 361.281219,735.911621
	C363.071838,759.333313 373.595154,777.826904 394.088593,789.972595
	C400.858521,793.984924 408.164093,796.919983 416.926483,798.789124
	C414.059723,793.186707 417.361023,790.895935 420.287018,788.319580
	C423.429962,785.552246 425.343658,788.412903 427.661041,789.662720
	C428.386963,790.054077 429.215057,790.255981 430.634918,790.845886
M496.955414,626.554138
	C491.324036,620.663391 485.677734,614.786743 480.072815,608.870972
	C478.824280,607.553162 477.398987,606.210693 477.506866,604.193726
	C477.708984,600.415039 486.526794,594.337341 490.222687,595.351379
	C498.468719,597.613892 502.353302,596.238647 507.641083,589.548462
	C509.798828,586.818420 512.260010,584.320679 514.664795,581.794922
	C520.603821,575.557129 520.494507,567.236755 514.301575,561.072388
	C510.998627,557.784668 507.512573,554.669800 504.357758,551.247742
	C501.832428,548.508423 499.995148,548.743591 497.398956,551.300781
	C485.189178,563.327271 472.789215,575.160461 460.500427,587.107117
	C455.316864,592.146362 455.229156,592.552551 460.329956,597.844666
	C472.570709,610.544739 484.915649,623.145020 497.285736,635.719482
	C502.413635,640.932068 502.791443,640.984192 508.067932,635.880798
	C520.629089,623.731812 533.035828,611.423157 545.570068,599.245972
	C548.399902,596.496765 547.918213,594.549500 544.665894,592.651611
	C530.898132,605.900940 517.269653,619.016235 503.486450,632.280396
	C501.060150,630.907654 499.226593,629.011536 496.955414,626.554138
M588.147461,466.391602
	C587.480225,469.806854 586.702820,473.205048 586.169861,476.641144
	C585.204285,482.866486 585.843079,483.760498 592.052979,483.624603
	C605.166748,483.337616 618.286255,484.142303 631.402771,482.949951
	C641.003784,482.077179 641.031189,482.383911 642.034546,491.684814
	C642.087952,492.180206 642.113098,492.686432 642.238037,493.164978
	C642.808594,495.349579 643.736084,497.526398 646.225159,497.724426
	C650.994629,498.103821 654.007629,494.473602 657.452515,492.052460
	C659.044617,490.933441 658.852539,488.775909 658.398010,486.938202
	C658.292603,486.512085 657.883179,485.977783 657.489441,485.834503
	C653.048889,484.218658 652.998352,480.079834 651.993469,476.466400
	C649.829285,468.684052 646.078369,462.378052 637.381897,460.509216
	C635.800049,460.169312 634.216064,459.415802 632.862732,458.510010
	C627.284668,454.776733 621.237854,452.964203 614.498657,453.306702
	C610.683594,453.500610 606.853149,453.387665 603.029724,453.420685
	C587.610718,453.553772 591.823486,451.129852 588.147461,466.391602
M296.217255,233.037827
	C292.313965,225.274307 288.410706,217.510788 284.380524,209.494904
	C281.725555,211.752029 281.876709,214.107285 281.492889,216.128098
	C280.097900,223.472794 278.773163,230.840057 277.747711,238.243927
	C275.010254,258.008301 275.604065,277.705048 279.263550,297.326385
	C280.121857,301.928223 282.799194,304.507660 287.153564,305.929779
	C288.677185,302.275269 286.528503,299.113708 286.770905,295.853699
	C286.886261,294.302551 286.240143,292.197723 288.796661,292.081970
	C290.947296,291.984619 292.125275,293.151093 292.332916,295.391357
	C292.578461,298.040222 292.775726,300.729919 293.417053,303.296204
	C294.157013,306.257263 296.674896,307.466278 299.457550,307.616608
	C301.785492,307.742371 301.869995,305.702606 301.871307,304.025146
	C301.876312,297.520508 302.487244,290.999054 293.936493,288.439178
	C289.278229,287.044617 287.569214,282.978943 289.280426,277.699707
	C293.259918,278.536163 297.610718,280.033783 298.179962,273.567810
	C303.654327,274.149872 308.290405,278.024170 314.245697,276.165649
	C312.328583,270.121521 311.361328,263.961578 303.784454,262.294189
	C301.071686,261.697205 298.567230,260.155823 295.965881,259.049774
	C289.951599,256.492615 285.137848,253.320541 286.485870,245.395126
	C286.936188,242.747589 285.851440,239.824234 285.383972,237.041153
	C285.129303,235.524826 284.852631,234.071960 286.436768,232.812180
	C290.416748,232.789124 292.722961,237.470398 296.864868,237.203018
	C297.657349,235.754074 296.719513,234.761032 296.217255,233.037827
M431.864838,526.609131
	C431.843323,524.778748 431.821381,522.948303 431.800354,521.117920
	C431.764923,518.035156 430.008820,516.304871 427.127655,516.457886
	C419.144562,516.881653 411.174316,516.530029 403.198914,516.550232
	C399.592560,516.559387 397.566132,518.422974 397.769073,522.638611
	C398.192993,531.445312 398.128662,540.274780 398.315643,549.093872
	C398.434906,554.719666 399.539856,555.841980 405.071075,555.997925
	C411.720581,556.185486 418.377167,555.460327 425.026611,556.221069
	C430.558411,556.853882 431.912262,555.739868 431.984589,550.051208
	C432.079803,542.563232 431.919403,535.071960 431.864838,526.609131
M443.553558,693.048767
	C447.897888,688.692200 452.242188,684.335510 456.586517,679.978882
	C457.977020,678.584473 459.150177,676.860596 457.501740,675.210144
	C455.439880,673.145813 454.259399,675.636597 453.116516,676.752808
	C447.523773,682.214905 442.041840,687.790405 436.517029,693.322144
	C435.105896,694.735107 433.774872,696.469421 431.438690,694.929932
	C426.609344,691.747375 424.228363,686.619263 422.477692,681.613098
	C421.119171,677.728271 425.384460,675.262756 427.808838,672.688843
	C430.765717,669.549500 434.108276,666.773926 437.276978,663.833435
	C439.190125,662.058044 441.316895,660.456848 443.204468,656.969910
	C438.085999,651.949646 432.658966,647.287292 427.680420,642.187256
	C424.878571,639.316956 422.887634,639.569824 420.263000,642.132507
	C414.432495,647.825317 408.591156,653.519348 402.505554,658.933350
	C399.351135,661.739624 399.625732,663.913391 402.311096,666.741455
	C410.555817,675.424255 418.675598,684.225586 426.839813,692.984680
	C434.781281,701.504822 434.779022,701.506897 443.553558,693.048767
M569.391968,368.748993
	C567.823303,376.561523 566.270752,384.377380 564.676086,392.184601
	C564.206238,394.484772 564.009155,396.577209 567.032166,397.199127
	C569.699158,397.747803 572.120850,397.524506 573.274658,394.617493
	C573.882935,393.084961 574.187073,391.422882 574.543518,389.800629
	C578.891479,370.011688 583.285889,350.232605 587.537964,330.422974
	C590.393250,317.120728 593.055115,303.776794 595.772522,290.445221
	C596.539795,286.681091 594.693115,285.033203 591.102051,284.377716
	C587.307068,283.684998 585.984497,285.568604 585.442810,288.803253
	C585.113892,290.767609 584.650696,292.709290 584.258057,294.663208
	C579.352295,319.079315 574.448425,343.495758 569.391968,368.748993
M753.367004,186.758820
	C756.950317,185.106873 761.040283,184.563965 764.231384,181.945923
	C764.005920,177.239761 761.707764,176.787598 757.894653,178.258514
	C742.979004,184.012161 728.023071,189.662354 713.057434,195.285263
	C689.369934,204.185181 665.666931,213.043640 641.957397,221.884552
	C639.555969,222.779999 637.650696,223.771881 638.614563,226.891434
	C639.591614,230.053680 641.697815,229.865051 644.144592,228.944901
	C651.459900,226.193787 658.804504,223.518707 666.091919,220.695755
	C694.959595,209.513214 723.809875,198.285583 753.367004,186.758820
M361.232910,271.200195
	C359.976349,279.819366 357.625061,288.098083 353.306152,295.712799
	C348.351898,304.447906 345.622101,313.310120 351.037872,322.898041
	C352.090668,324.761902 351.955383,327.108032 355.366547,327.401886
	C358.855072,327.702454 360.674042,326.473724 362.249390,323.867432
	C365.348572,318.740173 368.018799,313.426025 369.924835,307.718048
	C373.082001,298.263184 372.655731,296.362213 365.156219,290.222534
	C363.923279,289.213135 362.370300,288.594696 361.546356,288.126068
	C362.528442,275.242706 366.957611,262.794830 360.213165,250.619965
	C361.617401,257.104645 361.399933,263.686829 361.232910,271.200195
M584.118652,522.282898
	C581.628662,522.269043 579.131653,522.368591 576.650208,522.215942
	C572.493408,521.960022 571.106812,524.000977 571.112976,527.922913
	C571.126038,536.217346 570.932678,544.513245 570.727722,552.806152
	C570.668030,555.221497 571.500916,556.629395 574.015503,556.792542
	C582.320679,557.331604 589.938171,554.563232 597.323547,551.398254
	C600.840149,549.891174 600.610718,546.110046 597.322021,543.884583
	C596.107605,543.062805 594.672424,542.508606 593.269836,542.033203
	C585.630676,539.444336 584.751221,537.199280 588.754333,530.261597
	C591.246765,525.942200 589.955566,523.200378 584.118652,522.282898
M386.156647,506.877686
	C381.497101,508.343109 383.420715,512.232239 383.564270,515.006104
	C384.637817,535.753845 385.985291,556.487366 387.241974,577.225647
	C388.307556,594.810242 389.273956,612.401733 390.517242,629.973755
	C390.729614,632.974976 390.555237,636.244324 392.250458,639.179504
	C396.585907,638.425171 395.968292,635.282837 395.783844,632.587585
	C394.535553,614.346436 393.146118,596.114746 391.927032,577.871765
	C390.774872,560.630432 389.828186,543.375305 388.680969,526.133606
	C388.263947,519.866455 388.505096,513.513245 386.156647,506.877686
M495.183502,713.304749
	C492.029846,713.300903 488.861023,713.491211 485.726135,713.246826
	C481.257477,712.898376 479.804688,715.010132 480.000427,719.153442
	C480.188263,723.128845 480.100403,727.117981 480.108215,731.101074
	C480.132812,743.670593 482.023560,745.081421 494.171875,742.144287
	C497.002502,741.460022 498.233521,739.992310 498.016052,737.323486
	C497.564789,731.785095 498.318268,726.599121 500.331421,721.296631
	C502.368774,715.930420 500.857300,713.979980 495.183502,713.304749
M525.434998,697.310608
	C531.167969,697.645569 535.508240,699.492981 537.232056,705.829163
	C538.082031,708.953369 540.790344,708.430847 542.451050,706.014832
	C543.246338,704.857849 543.590454,703.186707 543.616943,701.738770
	C543.781494,692.765503 543.876160,683.789001 543.828491,674.814514
	C543.806335,670.641541 541.625671,669.737000 537.861511,671.234131
	C530.827942,674.031799 522.997437,685.346069 523.065308,692.867004
	C523.079651,694.453979 523.552429,695.805969 525.434998,697.310608
M632.689453,379.028870
	C625.225769,381.839172 619.962646,377.977417 615.086060,372.525513
	C610.412415,377.537292 607.809448,382.942871 607.529114,389.164978
	C607.381287,392.445374 609.512512,393.937500 613.157654,393.811035
	C617.975830,393.643860 622.761719,391.980865 627.413208,392.465210
	C634.522156,393.205414 640.004211,389.101135 646.565186,388.302673
	C644.120483,381.666412 640.249084,379.038300 632.689453,379.028870
M334.738556,229.764328
	C324.868713,220.982620 314.307129,213.259827 302.336517,207.693863
	C302.029388,207.992676 301.722229,208.291489 301.415100,208.590302
	C306.936829,219.339447 312.458557,230.088593 318.250275,241.363373
	C322.127258,235.789108 319.561798,229.444611 322.677338,224.562881
	C325.900726,225.154724 327.255127,227.596344 328.873657,229.600296
	C333.779266,235.674042 338.506317,241.908249 344.686401,246.793686
	C345.978180,247.814850 347.107910,249.742325 349.806976,248.175827
	C346.678589,240.737228 340.861908,235.569809 334.738556,229.764328
M408.976074,624.308594
	C411.789642,621.182312 415.841003,618.877258 415.523987,613.747253
	C414.920441,603.981506 414.390076,594.210876 413.893250,584.438965
	C413.699066,580.619995 414.230774,576.310486 409.032623,575.462585
	C405.729034,574.923767 403.295197,579.209717 403.629547,585.089294
	C404.336151,597.515747 405.214508,609.932434 406.061279,622.350586
	C406.154938,623.723755 405.827148,625.769043 408.976074,624.308594
M365.910095,354.284515
	C368.849976,358.374664 370.580353,353.624420 372.913361,353.367096
	C383.082245,352.245605 383.085419,343.524109 385.900146,337.207642
	C381.664551,332.735992 377.784821,335.043610 372.962097,338.250885
	C374.090668,330.901855 377.683105,326.261597 379.709259,321.047546
	C379.788513,320.843628 380.301086,320.689178 380.599121,320.708282
	C382.735229,320.845215 384.699310,320.804108 384.871582,317.917999
	C385.045135,315.010315 384.979889,312.236511 381.798920,310.880585
	C380.137085,311.583344 380.386292,313.141449 379.948669,314.330627
	C376.325562,324.175446 372.640167,334.031769 366.218292,342.454712
	C363.280457,346.308014 362.033813,349.740204 365.910095,354.284515
M518.219849,508.689941
	C512.450378,514.038879 513.693604,521.481262 521.073669,525.773804
	C527.652283,529.600159 532.699585,528.254456 535.997681,521.794678
	C539.724243,514.495728 538.281128,510.751129 530.814026,507.430298
	C526.579041,505.546875 522.752258,506.415649 518.219849,508.689941
M237.091278,380.193085
	C240.372543,378.370148 245.064514,380.159271 248.050003,375.940765
	C243.485703,375.266541 239.413101,374.803040 235.400970,374.026978
	C232.394699,373.445465 223.934250,363.899719 224.659332,361.270874
	C226.012390,356.365173 231.044418,358.794586 234.256561,357.428802
	C234.376282,357.377930 234.431351,357.174957 234.952423,356.366821
	C228.730286,352.121338 222.492218,347.865021 215.725586,343.248047
	C216.215347,357.846649 230.635162,386.754761 238.254745,389.375793
	C238.183578,386.374573 235.932755,383.818604 237.091278,380.193085
M401.648132,724.783997
	C401.019318,717.836731 400.416473,710.886902 399.749725,703.943298
	C399.457428,700.898987 398.479401,698.267517 394.944977,697.022034
	C394.701263,697.985840 394.383392,698.605652 394.416412,699.206238
	C395.137115,712.308716 395.630066,725.432800 396.797241,738.496399
	C397.193146,742.927246 397.748810,747.907410 402.527740,751.764038
	C403.634338,742.437500 401.860474,734.092834 401.648132,724.783997
M290.051880,321.675079
	C288.892853,321.325684 287.830780,319.966339 286.430023,321.369690
	C286.176208,324.092926 287.891052,325.704559 289.962006,326.818359
	C293.758972,328.860321 297.556305,331.034485 301.600891,332.443146
	C305.170258,333.686279 307.224182,335.053986 305.680054,339.142334
	C304.971710,341.017731 305.852417,342.384216 307.647766,343.108368
	C309.165710,343.720612 310.776855,344.801239 312.377808,344.035675
	C314.439056,343.049988 313.304352,341.172638 313.072540,339.612946
	C312.901550,338.462402 312.614594,337.297699 313.878967,336.198669
	C320.412018,336.070190 326.642303,340.541351 333.662170,338.474701
	C318.994751,333.697754 304.000458,330.021973 290.051880,321.675079
M548.018799,471.225800
	C547.444275,473.814911 546.704712,476.381989 546.355408,479.001099
	C546.136353,480.643188 545.329102,483.007568 548.083008,483.408752
	C550.504272,483.761444 552.150330,482.686523 552.691101,480.013397
	C554.204590,472.531189 555.902161,465.086304 557.428467,457.606537
	C557.784302,455.862854 558.266663,453.767639 555.481445,453.387268
	C553.227173,453.079407 551.598633,453.697723 551.108032,456.260376
	C550.203430,460.985779 549.176147,465.687714 548.018799,471.225800
M557.562744,731.991272
	C563.811829,726.013000 570.097290,720.071960 576.278503,714.024353
	C577.479675,712.849182 579.507629,711.442505 577.717041,709.435364
	C575.800049,707.286560 574.025208,708.935059 572.610962,710.315369
	C566.302307,716.472717 560.043274,722.681824 553.840393,728.945679
	C552.671753,730.125793 550.554626,731.343079 552.538574,733.459045
	C554.504211,735.555603 555.736877,733.627136 557.562744,731.991272
M234.884048,333.343506
	C232.633621,333.492310 230.289749,332.948883 227.576950,334.468445
	C230.788879,336.487305 233.664749,338.294922 237.071686,340.436340
	C237.353012,337.191620 238.817383,336.847229 241.437485,337.378296
	C246.625290,338.429779 251.923172,338.949402 257.183228,339.629425
	C261.111664,340.137299 261.974854,339.899841 265.420837,337.604706
	C255.508377,334.975189 245.734192,333.496979 234.884048,333.343506
M426.422913,355.284180
	C428.480011,354.644531 430.597687,354.152405 432.582550,353.336914
	C438.061493,351.085785 439.417206,346.841461 436.247803,341.890350
	C435.056366,340.029205 433.428497,339.091614 431.262482,340.650818
	C428.020233,342.984802 425.806274,346.199860 423.939392,349.609772
	C422.700562,351.872467 422.744019,354.148712 426.422913,355.284180
M423.598572,748.977356
	C427.146301,747.080444 428.769043,744.163513 427.153961,740.372314
	C425.992035,737.644836 423.577118,735.817383 420.373138,736.719299
	C417.451874,737.541565 414.992859,739.877869 415.702087,742.833191
	C416.497498,746.147705 417.966797,750.044128 423.598572,748.977356
M617.112671,763.665222
	C611.814392,764.529541 609.466675,769.140442 606.077881,772.412476
	C605.247803,773.213867 605.619080,774.272095 606.196289,775.145386
	C606.919739,776.239807 607.975281,776.655151 609.206909,776.213257
	C614.284607,774.391296 618.068359,771.003174 620.174927,766.090820
	C620.938660,764.309814 620.968445,761.717346 617.112671,763.665222
M342.025024,374.412628
	C330.394104,370.820465 318.945679,366.752014 308.076355,361.096985
	C308.205414,361.817413 308.445099,362.255707 308.802155,362.553192
	C318.326782,370.488953 330.196014,372.587158 341.656097,375.690918
	C342.131195,375.819550 342.625854,375.480560 342.025024,374.412628
M411.518585,314.476013
	C416.405151,311.918610 422.254120,310.635010 425.404602,304.563721
	C421.963226,304.855804 411.960327,308.957184 410.606842,310.394531
	C409.275604,311.808228 408.765350,313.214355 411.518585,314.476013
M252.764297,402.175903
	C251.094131,402.175903 249.423965,402.175903 246.602127,402.175903
	C252.536667,406.287750 266.731079,404.362610 271.253815,399.871246
	C265.392761,400.633270 259.506195,401.398621 252.764297,402.175903
M602.846313,245.654388
	C608.800476,249.818176 608.800476,249.818176 612.398010,248.689911
	C609.444092,245.210632 606.277771,242.360291 601.973328,241.016968
	C600.638550,242.773987 601.213318,244.022827 602.846313,245.654388
M587.046082,268.477203
	C588.556152,270.956726 591.068665,271.706451 593.672791,272.134491
	C594.820984,272.323242 596.032593,271.949524 596.446533,270.612396
	C596.851990,269.302673 596.272400,268.156952 595.047607,267.861420
	C592.467041,267.238678 589.797180,265.355988 587.046082,268.477203
M619.136780,237.701172
	C622.367188,234.012146 617.837341,233.324692 616.564819,231.558151
	C615.539551,230.134979 613.957520,231.219833 613.439880,232.441025
	C612.359985,234.988510 614.828064,235.691086 616.227539,236.834900
	C616.823242,237.321747 617.717407,237.443451 619.136780,237.701172
M570.585510,739.387085
	C568.764526,738.082397 567.455261,738.831787 566.679749,740.580627
	C565.924011,742.284729 566.668152,743.774109 567.951843,744.963379
	C568.748474,745.701355 569.776428,745.889954 570.620728,745.162659
	C572.442017,743.593933 572.165283,741.752502 570.585510,739.387085
M593.683960,254.342438
	C592.159485,254.673950 590.771729,255.520859 592.667419,256.741791
	C594.379089,257.844177 596.441284,259.356598 599.049133,258.196533
	C597.993225,255.904312 596.091431,255.263748 593.683960,254.342438
M434.739990,316.104553
	C436.061890,313.819183 439.518372,312.481720 437.746887,307.451202
	C436.101624,311.104156 433.596954,312.983368 434.739990,316.104553
z"/>
<path fill="#000000" opacity="1.000000" stroke="none"
	d="
M564.999878,863.322510
	C491.709412,863.318481 418.918945,863.299072 346.128510,863.340088
	C340.550781,863.343201 335.916931,862.126709 333.574188,856.404175
	C330.760712,849.531677 334.382385,842.587830 341.648682,841.327759
	C343.926239,840.932861 346.287415,840.905090 348.610413,840.903992
	C455.380737,840.853699 562.151062,840.828064 668.921387,840.785706
	C674.664124,840.783447 680.081177,841.584595 682.874512,847.444763
	C686.377502,854.793640 680.640869,863.165039 671.937012,863.274658
	C659.113220,863.436279 646.285950,863.322815 633.460205,863.323364
	C610.806763,863.324280 588.153381,863.322754 564.999878,863.322510
z"/>
<path fill="#000000" opacity="1.000000" stroke="none"
	d="
M245.545105,562.889893
	C244.912857,569.179626 243.331085,574.766479 240.367752,580.028076
	C238.964859,582.519043 239.251007,585.400635 240.151443,588.262817
	C241.130722,591.375671 241.902008,594.700989 239.030609,597.419983
	C236.307877,597.120850 236.208786,595.090942 236.056305,593.355408
	C235.258163,584.271667 234.474548,575.184387 233.895538,566.085022
	C233.736588,563.586792 233.007492,560.142822 236.558258,559.439636
	C239.864258,558.784912 243.626984,558.435059 245.545105,562.889893
z"/>
<path fill="#000000" opacity="1.000000" stroke="none"
	d="
M305.480652,538.644836
	C300.816376,537.249939 296.714905,535.450989 292.034210,535.745789
	C289.901245,535.880127 288.101074,534.319702 288.375214,531.908936
	C288.651581,529.478760 290.703461,529.330200 292.618622,529.741150
	C296.755920,530.628845 300.538940,529.949463 304.039459,527.573303
	C304.584015,527.203674 305.215332,526.939880 305.837097,526.709717
	C309.958313,525.183960 315.810699,527.664734 316.607941,531.257385
	C317.275116,534.263977 313.658295,538.087891 309.353424,538.782654
	C308.228180,538.964233 307.040833,538.761230 305.480652,538.644836
z"/>
<path fill="#000000" opacity="1.000000" stroke="none"
	d="
M298.474487,846.183228
	C303.088409,845.820557 305.832672,848.026672 306.975464,851.835938
	C307.861389,854.789124 306.453644,857.363403 303.932404,859.108398
	C300.691193,861.351807 296.341125,860.517883 294.331482,857.388550
	C291.877350,853.567078 293.342010,849.271606 298.474487,846.183228
z"/>
<path fill="#000000" opacity="1.000000" stroke="none"
	d="
M723.278931,852.267212
	C722.717773,858.146667 720.616516,860.391296 716.163269,860.289856
	C712.409973,860.204346 710.368408,858.097778 709.809326,854.565308
	C709.147644,850.384521 711.329224,846.865967 715.113403,846.308716
	C719.356445,845.684143 721.985718,847.879944 723.278931,852.267212
z"/>
<path fill="#000000" opacity="1.000000" stroke="none"
	d="
M809.657593,496.655762
	C808.396667,500.350616 806.005554,501.751709 802.615173,501.085419
	C800.291504,500.628754 798.917847,499.060913 798.732178,496.580811
	C798.474854,493.144318 799.746399,490.398468 803.279785,490.063843
	C807.379089,489.675629 809.782654,491.929840 809.657593,496.655762
z"/>
<path fill="#000000" opacity="1.000000" stroke="none"
	d="
M205.935379,496.063049
	C207.929962,490.364899 210.602859,488.779877 213.614304,491.213074
	C215.561813,492.786621 216.565491,494.879913 215.747910,497.402679
	C215.002869,499.701538 213.205017,500.934052 210.843262,500.969696
	C207.906097,501.014008 206.228485,499.419373 205.935379,496.063049
z"/>
<path fill="#000000" opacity="1.000000" stroke="none"
	d="
M695.045288,491.728455
	C694.841309,488.466278 695.604675,486.089813 698.759644,484.690308
	C701.565918,486.928833 702.999695,489.946014 703.021179,493.514557
	C703.029907,494.958496 701.562195,495.719757 700.166687,495.853699
	C697.428833,496.116516 695.793274,494.716827 695.045288,491.728455
z"/>
<path fill="#000000" opacity="1.000000" stroke="none"
	d="
M316.946014,563.353516
	C311.876190,566.523010 308.065552,563.821838 303.080658,561.683594
	C308.039642,558.403503 312.424164,558.739746 316.733276,559.703918
	C318.765076,560.158508 318.499939,561.762756 316.946014,563.353516
z"/>
<path fill="#000000" opacity="1.000000" stroke="none"
	d="
M314.963226,641.823364
	C313.713043,638.905579 311.351410,635.908508 315.828094,634.260132
	C317.282043,633.724792 319.257599,633.764954 320.319763,635.442993
	C321.293182,636.980774 320.962158,638.696228 320.147827,640.194580
	C319.086792,642.146667 317.518555,643.164734 314.963226,641.823364
z"/>
<path fill="#000000" opacity="1.000000" stroke="none"
	d="
M802.622314,560.713135
	C803.044128,562.912231 801.407715,563.165405 800.242676,563.356873
	C795.952148,564.061951 792.830627,566.008240 791.559875,570.643982
	C789.620911,567.840332 790.628845,565.409790 792.394348,563.265991
	C795.034363,560.060059 798.246704,558.345398 802.622314,560.713135
z"/>
<path fill="#000000" opacity="1.000000" stroke="none"
	d="
M694.336487,446.170898
	C693.918152,448.195709 693.277588,449.910065 691.101074,449.352386
	C689.502747,448.942810 689.071350,447.257935 688.695374,445.807861
	C688.364014,444.529694 688.806763,443.241730 690.113159,443.039612
	C692.183289,442.719269 693.451904,444.100403 694.336487,446.170898
z"/>
<path fill="#000000" opacity="1.000000" stroke="none"
	d="
M633.878357,317.767761
	C630.062744,318.849670 628.585632,316.147461 626.084839,312.997223
	C630.004639,313.671844 632.794861,314.110626 633.878357,317.767761
z"/>
<path fill="#000000" opacity="1.000000" stroke="none"
	d="
M694.226624,528.871582
	C696.661743,529.648376 697.416626,531.023987 695.893799,532.909790
	C694.960510,534.065369 693.458008,534.191650 692.499878,533.004944
	C690.953247,531.089539 691.951050,529.751831 694.226624,528.871582
z"/>
</svg>
